<?xml version="1.0" encoding="utf-8"?>
<!DOCTYPE svg PUBLIC "-//W3C//DTD SVG 20010904//EN" "http://www.w3.org/TR/2001/REC-SVG-20010904/DTD/svg10.dtd">
<svg version="1.0" width="211.5pt" height="211.5pt" viewBox="0 0 211.5 211.5" preserveAspectRatio="xMidYMid meet" xmlns="http://www.w3.org/2000/svg">
  <g transform="translate(0,211.5)scale(.0705,.0705)">
    <path id="path1" d="M 1025 -2990 l -870 5 -3 3 -2 2 0 1475 0 1476 23 9 22 9 1301 0 1301 1 21 -23 22 -23 0 -1108 0 -1108 -44 -39 -44 -39 -248 -192 -249 -193 -35 -28 -35 -27 -135 -105 -135 -105 -10 2 -10 3 -870 5 z m 1202 392 l 338 263 73 55 72 55 0 1042 0 1043 -1215 0 -1215 0 0 -1360 0 -1360 805 0 804 0 338 262 z M 940 -2042 l 0 222 90 0 91 0 39 -20 39 -20 11 -20 10 -19 7 -46 6 -46 -33 -35 -34 -34 22 -20 22 -21 0 -49 0 -48 -30 -29 -30 -28 -105 -5 -105 -5 0 223 z m 171 -148 l 19 11 0 31 0 31 -17 19 -16 18 -44 0 -43 0 0 -60 0 -60 41 0 40 0 20 10 z m 16 195 l 23 15 0 36 0 35 -35 15 -34 14 -36 0 -35 0 0 -71 0 -72 47 7 47 6 23 15 z M 572 -2232 l 3 27 83 3 82 3 0 130 0 130 -15 29 -16 30 -35 0 -35 0 -30 -16 -31 -15 -5 4 -4 5 6 35 7 35 44 11 43 11 47 -12 48 -13 28 -44 28 -45 0 -168 0 -168 -126 0 -125 0 3 28 z M 1302 -2042 l 3 217 87 3 87 3 43 -22 43 -21 17 -22 18 -21 0 -45 0 -44 -32 -33 -31 -32 26 -35 27 -35 0 -25 0 -25 -11 -25 -11 -24 -42 -16 -42 -16 -92 0 -92 0 2 218 z m 190 -141 l 18 16 0 20 0 21 -22 23 -21 23 -44 0 -43 0 0 -60 0 -60 47 0 46 0 19 17 z m -27 173 l 39 9 13 17 13 18 0 12 0 12 -26 31 -26 31 -49 0 -49 0 0 -70 0 -70 22 0 23 0 40 10 z M 1670 -2040 l 0 220 30 0 29 0 3 -157 3 -157 69 150 69 149 1 1 1 1 47 6 48 7 0 -220 0 -220 -30 0 -30 0 0 156 0 155 -9 -5 -8 -5 -69 -151 -69 -150 -42 0 -43 0 0 220 z M 2072 -2217 l -42 43 0 17 0 18 20 40 21 40 86 42 87 42 10 17 11 18 -17 27 -17 28 -100 -4 -101 -3 0 30 0 31 18 5 17 5 55 6 56 7 57 -17 57 -16 20 -26 20 -26 0 -52 0 -53 -35 -26 -35 -27 -53 -24 -52 -23 -22 -24 -22 -24 5 -21 6 -22 30 -6 29 -7 62 4 62 3 3 -33 3 -32 -98 0 -99 0 -42 43 z M 500 -1495 l 0 245 405 0 405 0 0 -245 0 -245 -405 0 -405 0 0 245 z m 728 -3 l -3 173 -323 3 -322 2 0 -175 0 -175 325 0 325 0 -2 172 z M 1360 -1290 l 0 450 235 0 235 0 0 -450 0 -450 -235 0 -235 0 0 450 z m 390 -5 l 0 375 -160 0 -160 0 0 -375 0 -375 160 0 160 0 0 375 z M 1850 -1285 l 0 235 348 -2 347 -3 0 -230 0 -230 -347 -3 -348 -2 0 235 z m 615 0 l 0 160 -265 0 -265 0 -3 -150 -3 -149 5 -13 6 -13 262 2 263 3 0 160 z M 722 -1068 l 3 153 285 0 285 0 3 -153 3 -152 -291 0 -291 0 3 152 z m 493 3 l 0 80 -205 0 -205 0 -3 -69 -3 -69 5 -14 6 -13 202 2 203 3 0 80 z M 458 -755 l -11 24 13 16 13 16 26 -3 26 -3 0 -29 0 -30 -28 -7 -28 -8 -11 24 z M 1544 -767 l -4 13 2 174 3 175 27 3 28 3 0 -88 0 -89 19 -21 19 -21 26 5 26 5 0 73 0 72 6 32 7 32 26 -3 26 -3 3 -99 3 -99 -26 -39 -26 -39 -30 5 -29 6 -28 5 -28 6 -3 -52 -2 -53 -5 -8 -5 -8 -15 0 -15 0 -5 13 z M 1313 -740 l -33 7 -15 13 -15 12 0 47 0 48 22 20 23 20 63 28 62 28 0 18 0 19 -25 16 -25 16 -71 -7 -71 -7 4 28 3 29 52 8 53 8 52 -15 53 -15 18 -30 17 -29 0 -25 0 -25 -39 -31 -39 -31 -46 -21 -46 -20 0 -29 0 -28 30 -7 30 -7 40 7 40 7 0 -25 0 -25 -22 -6 -23 -6 -30 1 -30 1 -32 8 z M 401 -666 l -13 16 5 14 6 15 33 3 33 3 3 83 3 82 -41 0 -41 0 3 22 3 23 103 3 102 3 0 -25 0 -25 -32 -3 -33 -3 -3 -107 -3 -108 -28 0 -29 0 -29 -6 -29 -6 -13 16 z M 660 -540 l 0 140 20 0 20 0 0 -80 0 -79 12 -26 11 -25 13 0 13 0 3 102 3 103 24 3 24 4 8 -14 9 -13 0 -91 0 -92 15 -12 14 -12 3 114 3 113 27 3 28 3 0 -111 0 -111 -15 -29 -16 -30 -21 0 -21 0 -20 17 -19 18 -9 -18 -10 -17 -17 0 -18 0 -22 16 -22 15 0 -15 0 -16 -20 0 -20 0 0 140 z M 996 -653 l -38 28 5 47 6 46 -10 37 -10 36 12 15 12 15 -11 11 -12 12 0 41 0 41 35 17 36 17 39 0 39 0 38 -18 38 -17 7 -10 8 -10 0 -35 0 -35 -9 -13 -8 -13 -78 -13 -79 -12 -4 -12 -4 -12 54 0 54 0 27 -28 27 -28 0 -37 0 -37 10 0 10 0 0 -30 0 -30 -78 0 -77 0 -39 27 z m 109 49 l 17 26 -18 19 -18 20 -25 -3 -25 -3 -7 -29 -8 -29 17 -13 17 -13 16 -1 17 0 17 26 z m 25 228 l 0 24 -30 7 -30 7 -30 -7 -30 -7 0 -24 0 -24 60 0 60 0 0 24 z M 1905 -673 l -20 4 -23 5 -22 4 0 32 0 32 12 -12 12 -12 53 0 52 0 11 19 10 20 0 10 0 11 -55 0 -56 0 -29 22 -30 22 0 36 0 37 23 21 23 22 50 0 49 0 37 -6 38 -7 0 -107 0 -108 -34 -26 -35 -26 -23 1 -23 1 -20 5 z m 85 177 l 0 15 -22 15 -22 16 -29 0 -28 0 -5 -15 -6 -15 6 -15 5 -15 51 0 50 0 0 14 z M 2132 -668 l -12 12 0 129 0 128 28 -3 27 -3 3 -80 3 -80 26 -27 27 -28 22 0 23 0 3 28 3 27 30 0 30 0 3 -31 3 -31 -31 -27 -32 -26 -22 0 -23 0 -26 20 -25 20 -5 0 -5 0 -5 -20 -5 -20 -14 0 -14 0 -12 12 z M 2440 -644 l -40 36 0 73 0 72 20 25 19 25 59 13 60 12 28 -14 29 -13 0 -15 0 -15 -60 -3 -60 -3 -17 -16 -18 -16 0 -13 0 -13 82 -3 83 -3 3 -44 3 -44 -37 -38 -38 -39 -38 0 -38 0 -40 36 z m 118 36 l 12 10 0 19 0 19 -50 0 -51 0 -6 -17 -6 -16 23 -19 23 -18 21 6 21 6 13 10 z " />
  </g>
</svg>