<?xml version="1.0" encoding="utf-8"?>
<!DOCTYPE svg PUBLIC "-//W3C//DTD SVG 20010904//EN" "http://www.w3.org/TR/2001/REC-SVG-20010904/DTD/svg10.dtd">
<svg version="1.0" width="90.24pt" height="90.24pt" viewBox="0 0 90.24 90.24" preserveAspectRatio="xMidYMid meet" xmlns="http://www.w3.org/2000/svg">
  <g transform="translate(0,90.24)scale(.0705,.0705)">
    <path id="path1" d="M 185 -1090 l -39 40 204 205 205 205 -205 205 -205 205 43 42 42 43 205 -205 205 -205 205 205 205 205 42 -43 43 -42 -205 -205 -205 -205 205 -205 205 -205 -43 -42 -42 -43 -205 205 -205 205 -203 -203 -202 -202 -6 0 -5 0 -39 40 z " />
  </g>
</svg>